<?xml version="1.0" encoding="utf-8"?>
<!-- Generator: Adobe Illustrator 16.0.0, SVG Export Plug-In . SVG Version: 6.00 Build 0)  -->
<!DOCTYPE svg PUBLIC "-//W3C//DTD SVG 1.1//EN" "http://www.w3.org/Graphics/SVG/1.1/DTD/svg11.dtd">
<svg version="1.1" id="Lager_1" xmlns="http://www.w3.org/2000/svg" xmlns:xlink="http://www.w3.org/1999/xlink" x="0px" y="0px"
	 width="286.809px" height="186.037px" viewBox="0 0 286.809 186.037" enable-background="new 0 0 286.809 186.037"
	 xml:space="preserve">
<g>
	<path d="M51.999,150.688v-0.059c0-5.791,4.336-10.533,10.504-10.533c3.754,0,6.023,1.309,7.973,3.17l-2.299,2.648
		c-1.629-1.512-3.375-2.531-5.703-2.531c-3.87,0-6.722,3.201-6.722,7.188v0.059c0,3.986,2.822,7.217,6.722,7.217
		c2.502,0,4.103-0.99,5.849-2.619l2.299,2.328c-2.124,2.211-4.452,3.607-8.264,3.607C56.421,161.162,51.999,156.535,51.999,150.688z
		"/>
	<path d="M75.431,150.688v-0.059c0-5.732,4.423-10.533,10.679-10.533s10.621,4.742,10.621,10.475v0.059
		c0,5.732-4.423,10.533-10.679,10.533C79.796,161.162,75.431,156.42,75.431,150.688z M92.978,150.688v-0.059
		c0-3.957-2.881-7.246-6.925-7.246c-4.045,0-6.867,3.23-6.867,7.188v0.059c0,3.957,2.88,7.217,6.925,7.217
		C90.155,157.846,92.978,154.645,92.978,150.688z"/>
	<path d="M109.438,140.299h3.317l8.962,20.514h-3.783l-2.066-4.918h-9.632l-2.095,4.918h-3.667L109.438,140.299z M114.559,152.723
		l-3.521-8.146l-3.492,8.146H114.559z"/>
	<path d="M125.844,150.688v-0.059c0-5.791,4.336-10.533,10.504-10.533c3.754,0,6.023,1.309,7.974,3.17l-2.299,2.648
		c-1.63-1.512-3.376-2.531-5.703-2.531c-3.871,0-6.722,3.201-6.722,7.188v0.059c0,3.986,2.822,7.217,6.722,7.217
		c2.502,0,4.103-0.99,5.849-2.619l2.299,2.328c-2.124,2.211-4.452,3.607-8.265,3.607
		C130.267,161.162,125.844,156.535,125.844,150.688z"/>
	<path d="M151.708,140.443h3.579v8.469h9.72v-8.469h3.578v20.369h-3.578v-8.584h-9.72v8.584h-3.579V140.443z"/>
	<path d="M178.234,140.443h3.579v20.369h-3.579V140.443z"/>
	<path d="M191.025,140.443h3.316l10.912,14.084v-14.084h3.521v20.369h-2.998l-11.231-14.49v14.49h-3.521V140.443z"/>
	<path d="M215.423,150.688v-0.059c0-5.703,4.364-10.533,10.505-10.533c3.55,0,5.732,0.988,7.827,2.764l-2.27,2.705
		c-1.571-1.338-3.114-2.182-5.704-2.182c-3.753,0-6.604,3.289-6.604,7.188v0.059c0,4.189,2.765,7.273,6.925,7.273
		c1.921,0,3.667-0.609,4.918-1.541v-3.812h-5.209v-3.113h8.672v8.555c-2.008,1.717-4.889,3.172-8.496,3.172
		C219.614,161.162,215.423,156.623,215.423,150.688z"/>
</g>
<g>
	<path d="M136.699,19.239h1.255l5.413,11.962h-1.442l-1.392-3.139h-6.465l-1.408,3.139h-1.375L136.699,19.239z M140.007,26.84
		l-2.698-6.041l-2.716,6.041H140.007z"/>
	<path d="M144.489,25.295v-0.033c0-3.359,2.512-6.143,6.006-6.143c2.156,0,3.445,0.764,4.633,1.884l-0.916,0.983
		c-1.002-0.95-2.121-1.629-3.732-1.629c-2.631,0-4.6,2.139-4.6,4.87v0.034c0,2.748,1.986,4.903,4.6,4.903
		c1.629,0,2.697-0.628,3.834-1.714l0.883,0.865c-1.238,1.256-2.596,2.088-4.752,2.088C147.016,31.405,144.489,28.707,144.489,25.295
		z"/>
</g>
<g>
	<path d="M66.598,27.541l0.446-0.528c0.665,0.601,1.303,0.901,2.186,0.901c0.856,0,1.421-0.455,1.421-1.084v-0.019
		c0-0.592-0.319-0.929-1.658-1.211c-1.466-0.319-2.141-0.793-2.141-1.841v-0.018c0-1.002,0.884-1.74,2.095-1.74
		c0.929,0,1.594,0.265,2.241,0.783L70.77,23.34c-0.592-0.482-1.184-0.692-1.84-0.692c-0.829,0-1.357,0.456-1.357,1.029v0.019
		c0,0.602,0.328,0.938,1.731,1.239c1.421,0.31,2.077,0.829,2.077,1.804v0.018c0,1.094-0.911,1.804-2.177,1.804
		C68.192,28.56,67.363,28.223,66.598,27.541z"/>
	<path d="M75.483,22.757h-2.141v-0.665h5.01v0.665h-2.141v5.712h-0.729V22.757z"/>
	<path d="M80.788,22.092h0.72v2.833h3.68v-2.833h0.72v6.377h-0.72V25.6h-3.68v2.869h-0.72V22.092z"/>
	<path d="M88.798,22.092h0.72v5.712h3.589v0.665h-4.309V22.092z"/>
	<path d="M95.372,22.092H96.1l2.323,3.48l2.323-3.48h0.729v6.377h-0.72v-5.165l-2.323,3.416h-0.036l-2.323-3.407v5.156h-0.702
		V22.092z"/>
</g>
<g>
	<path d="M185.765,27.541l0.445-0.528c0.666,0.601,1.303,0.901,2.188,0.901c0.855,0,1.42-0.455,1.42-1.084v-0.019
		c0-0.592-0.318-0.929-1.656-1.211c-1.467-0.319-2.141-0.793-2.141-1.841v-0.018c0-1.002,0.883-1.74,2.094-1.74
		c0.93,0,1.594,0.265,2.242,0.783l-0.42,0.556c-0.592-0.482-1.184-0.692-1.84-0.692c-0.828,0-1.357,0.456-1.357,1.029v0.019
		c0,0.602,0.328,0.938,1.73,1.239c1.422,0.31,2.078,0.829,2.078,1.804v0.018c0,1.094-0.912,1.804-2.178,1.804
		C187.359,28.56,186.531,28.223,185.765,27.541z"/>
	<path d="M192.382,22.092h0.783l1.822,5.312l1.75-5.329h0.592l1.748,5.329l1.822-5.312h0.756l-2.277,6.423h-0.609l-1.75-5.175
		l-1.758,5.175h-0.602L192.382,22.092z"/>
	<path d="M203.925,22.092h4.609v0.656h-3.891v2.177h3.48v0.656h-3.48v2.231h3.936v0.656h-4.654V22.092z"/>
</g>
<g>
	<path d="M110.001,179.551h4.609v0.656h-3.89v2.178h3.479v0.656h-3.479v2.23h3.935v0.656h-4.655V179.551z"/>
	<path d="M118.877,180.217h-2.141v-0.666h5.01v0.666h-2.141v5.711h-0.729V180.217z"/>
	<path d="M125.722,179.506h0.674l2.906,6.422h-0.774l-0.747-1.686h-3.471l-0.756,1.686h-0.738L125.722,179.506z M127.499,183.588
		l-1.448-3.244l-1.458,3.244H127.499z"/>
	<path d="M131.646,179.551h2.715c0.729,0,1.303,0.211,1.667,0.566c0.265,0.271,0.41,0.609,0.41,1.02v0.018
		c0,0.83-0.511,1.258-1.012,1.477c0.757,0.227,1.367,0.664,1.367,1.539v0.018c0,1.094-0.921,1.74-2.314,1.74h-2.833V179.551z
		 M135.709,181.236c0-0.629-0.501-1.037-1.413-1.037h-1.94v2.195h1.886c0.866,0,1.467-0.393,1.467-1.139V181.236z M134.37,183.031
		h-2.013v2.25h2.141c0.966,0,1.567-0.428,1.567-1.139v-0.018C136.064,183.432,135.481,183.031,134.37,183.031z"/>
	<path d="M139.31,179.551h0.72v5.713h3.59v0.664h-4.31V179.551z"/>
	<path d="M145.836,184.973h0.838v0.955h-0.838V184.973z"/>
	<path d="M152.717,185.373l2.312-2.041c0.975-0.875,1.33-1.367,1.33-2.004c0-0.748-0.592-1.221-1.283-1.221
		c-0.73,0-1.203,0.383-1.713,1.094l-0.529-0.383c0.574-0.857,1.176-1.357,2.297-1.357c1.146,0,1.977,0.766,1.977,1.803v0.02
		c0,0.928-0.492,1.502-1.613,2.477l-1.703,1.512h3.379v0.656h-4.453V185.373z"/>
	<path d="M159.389,182.758v-0.018c0-1.785,1.066-3.299,2.705-3.299c1.641,0,2.678,1.494,2.678,3.279v0.02
		c0,1.785-1.057,3.297-2.695,3.297C160.428,186.037,159.389,184.543,159.389,182.758z M164.026,182.758v-0.018
		c0-1.395-0.766-2.643-1.949-2.643c-1.193,0-1.941,1.221-1.941,2.623v0.02c0,1.393,0.766,2.641,1.959,2.641
		S164.026,184.152,164.026,182.758z"/>
	<path d="M168.01,180.254l-1.203,0.373l-0.174-0.584l1.559-0.537h0.527v6.422h-0.709V180.254z"/>
	<path d="M174.665,184.416h-3.361l-0.182-0.529l3.607-4.381h0.637v4.309h0.984v0.602h-0.984v1.512h-0.701V184.416z M174.665,183.814
		v-3.289l-2.678,3.289H174.665z"/>
</g>
<path d="M143.241,51.211l-25.604-25.605L143.241,0l25.604,25.605L143.241,51.211z M119.05,25.605l24.19,24.191l24.189-24.191
	L143.241,1.414L119.05,25.605z"/>
<g>
	<g>
		<path d="M3.694,86.754c3.99-1.396,5.991-2.066,10.008-3.352c11.516,11.88,22.423,24.353,32.649,37.36
			c-4.088,1.061-6.127,1.62-10.19,2.806c-2.738-3.376-4.128-5.052-6.953-8.38c-7.662,2.335-11.469,3.614-19.024,6.383
			c-0.255,4.361-0.359,6.536-0.519,10.884c-3.883,1.476-5.816,2.243-9.666,3.838C0.398,119.731,1.637,103.192,3.694,86.754z
			 M23.039,108.018c-4.205-4.747-6.353-7.096-10.738-11.736c-0.703,6.347-1.002,9.518-1.503,15.843
			C15.672,110.395,18.121,109.572,23.039,108.018z"/>
		<path d="M67.746,79.709c-6.035,1.06-9.045,1.65-15.044,2.95c-0.767-3.542-1.152-5.315-1.919-8.857
			c13.998-2.821,27.924-5.063,42.1-6.777c0.383,3.604,0.576,5.408,0.958,9.012c-6.077,0.646-9.111,1.028-15.167,1.915
			c1.721,11.743,3.436,23.486,5.156,35.229c-3.977,0.582-5.962,0.899-9.925,1.596C71.85,103.087,69.798,91.398,67.746,79.709z"/>
		<path d="M119.798,65.086c4.513-0.171,6.771-0.225,11.286-0.268c0.118,11.911,0.227,23.822,0.34,35.732
			c9.312-0.089,13.973,0.02,23.274,0.531c-0.196,3.567-0.295,5.349-0.491,8.916c-10.952-0.425-21.758-0.514-32.716-0.277
			C120.928,94.842,120.361,79.964,119.798,65.086z"/>
		<path d="M183.402,67.778c12.855,1.583,25.631,3.796,38.271,6.627c-0.765,3.412-1.145,5.119-1.909,8.531
			c-10.559-2.366-15.872-3.363-26.536-4.984c-0.545,3.583-0.818,5.375-1.363,8.958c9.165,1.393,13.735,2.23,22.822,4.187
			c-0.736,3.418-1.104,5.128-1.84,8.546c-8.878-1.911-13.341-2.729-22.295-4.09c-0.563,3.709-0.848,5.564-1.411,9.273
			c10.05,1.527,15.057,2.472,25.006,4.71c-0.768,3.411-1.151,5.115-1.919,8.526c-11.423-2.365-22.733-4.328-34.284-5.954
			C179.762,97.332,181.583,82.555,183.402,67.778z"/>
		<path d="M258.327,94.03c-5.862-1.968-8.81-2.892-14.728-4.62c1.016-3.479,1.521-5.219,2.537-8.698
			c13.801,4.25,27.253,8.985,40.673,14.315c-1.387,3.348-2.079,5.022-3.466,8.371c-5.75-2.382-8.644-3.512-14.462-5.653
			c-4.097,11.138-8.2,22.273-12.297,33.411c-3.82-1.406-5.739-2.08-9.589-3.372C250.773,116.533,254.549,105.281,258.327,94.03z"/>
	</g>
</g>
</svg>
