<?xml version="1.0" encoding="utf-8"?>
<!-- Generator: Adobe Illustrator 16.0.0, SVG Export Plug-In . SVG Version: 6.00 Build 0)  -->
<!DOCTYPE svg PUBLIC "-//W3C//DTD SVG 1.1//EN" "http://www.w3.org/Graphics/SVG/1.1/DTD/svg11.dtd">
<svg version="1.1" id="Layer_1" xmlns="http://www.w3.org/2000/svg" xmlns:xlink="http://www.w3.org/1999/xlink" x="0px" y="0px"
	 width="99.896px" height="99.894px" viewBox="0 0 99.896 99.894" enable-background="new 0 0 99.896 99.894" xml:space="preserve">
<path d="M49.947,0C22.363,0,0,22.363,0,49.947c0,27.586,22.363,49.947,49.947,49.947c27.585,0,49.949-22.361,49.949-49.947
	C99.896,22.363,77.532,0,49.947,0z M60.976,41.49l-0.575,7.472H52.74V74.92h-9.679V48.962h-5.164V41.49h5.164v-5.02
	c0-2.213,0.056-5.625,1.663-7.739c1.694-2.237,4.019-3.76,8.016-3.76c6.515,0,9.258,0.93,9.258,0.93l-1.291,7.65
	c0,0-2.152-0.623-4.16-0.623c-2.009,0-3.807,0.72-3.807,2.728v5.833H60.976z"/>
</svg>
