<?xml version="1.0" encoding="utf-8"?>
<!-- Generator: Adobe Illustrator 16.0.0, SVG Export Plug-In . SVG Version: 6.00 Build 0)  -->
<!DOCTYPE svg PUBLIC "-//W3C//DTD SVG 1.1//EN" "http://www.w3.org/Graphics/SVG/1.1/DTD/svg11.dtd">
<svg version="1.1" id="Layer_1" xmlns="http://www.w3.org/2000/svg" xmlns:xlink="http://www.w3.org/1999/xlink" x="0px" y="0px"
	 width="100px" height="100px" viewBox="0 0 100 100" enable-background="new 0 0 100 100" xml:space="preserve">
<g>
	<path d="M63.678,50c0,7.538-6.134,13.672-13.672,13.672c-7.539,0-13.67-6.134-13.67-13.672c0-1.814,0.361-3.545,1.006-5.131h-7.464
		v20.469c0,2.643,2.146,4.79,4.791,4.79h30.673c2.645,0,4.792-2.147,4.792-4.79V44.869h-7.465
		C63.313,46.455,63.678,48.186,63.678,50z"/>
	<polygon points="69.221,39.234 69.221,31.86 69.221,30.759 68.115,30.763 60.742,30.786 60.772,39.262 	"/>
	<path d="M50.006,58.799c4.852,0,8.802-3.947,8.802-8.799c0-1.916-0.623-3.685-1.667-5.131c-1.601-2.216-4.197-3.669-7.135-3.669
		c-2.937,0-5.535,1.453-7.135,3.669c-1.042,1.446-1.664,3.215-1.664,5.131C41.207,54.852,45.154,58.799,50.006,58.799z"/>
	<path d="M50,0C22.381,0,0,22.386,0,49.999C0,77.612,22.381,100,50,100c27.616,0,50-22.388,50-50.001C100,22.386,77.616,0,50,0z
		 M75.007,44.869v20.469c0,5.329-4.336,9.662-9.665,9.662H34.669c-5.328,0-9.662-4.333-9.662-9.662V44.869V34.662
		c0-5.329,4.334-9.662,9.662-9.662h30.673c5.329,0,9.665,4.333,9.665,9.662V44.869z"/>
</g>
</svg>
