<?xml version="1.0" encoding="utf-8"?>
<!-- Generator: Adobe Illustrator 16.0.0, SVG Export Plug-In . SVG Version: 6.00 Build 0)  -->
<!DOCTYPE svg PUBLIC "-//W3C//DTD SVG 1.1//EN" "http://www.w3.org/Graphics/SVG/1.1/DTD/svg11.dtd">
<svg version="1.1" id="Layer_1" xmlns="http://www.w3.org/2000/svg" xmlns:xlink="http://www.w3.org/1999/xlink" x="0px" y="0px"
	 width="100.235px" height="100.233px" viewBox="0 0 100.235 100.233" enable-background="new 0 0 100.235 100.233"
	 xml:space="preserve">
<path d="M50.118,0C22.438,0,0,22.439,0,50.117c0,27.68,22.438,50.117,50.118,50.117c27.678,0,50.117-22.437,50.117-50.117
	C100.235,22.439,77.796,0,50.118,0z M70.123,42.32c0.019,0.438,0.028,0.885,0.028,1.333c0,13.612-10.356,29.304-29.305,29.304
	c-5.815,0-11.229-1.706-15.788-4.625c0.804,0.096,1.626,0.143,2.458,0.143c4.824,0,9.266-1.646,12.791-4.41
	c-4.508-0.079-8.311-3.059-9.62-7.149c0.625,0.121,1.273,0.183,1.937,0.183c0.941,0,1.851-0.121,2.715-0.363
	c-4.715-0.944-8.265-5.106-8.265-10.099v-0.126c1.39,0.767,2.979,1.234,4.667,1.286c-2.764-1.849-4.582-5.002-4.582-8.573
	c0-1.887,0.508-3.656,1.394-5.182c5.083,6.236,12.67,10.333,21.23,10.762c-0.177-0.752-0.265-1.537-0.265-2.345
	c0-5.686,4.612-10.299,10.296-10.299c2.964,0,5.643,1.25,7.518,3.251c2.35-0.46,4.551-1.316,6.542-2.496
	c-0.767,2.404-2.4,4.421-4.528,5.696c2.082-0.249,4.069-0.803,5.915-1.622C73.884,39.052,72.136,40.867,70.123,42.32z"/>
</svg>
