<?xml version="1.0" encoding="utf-8"?>
<!-- Generator: Adobe Illustrator 16.0.0, SVG Export Plug-In . SVG Version: 6.00 Build 0)  -->
<!DOCTYPE svg PUBLIC "-//W3C//DTD SVG 1.1//EN" "http://www.w3.org/Graphics/SVG/1.1/DTD/svg11.dtd">
<svg version="1.1" id="Layer_1" xmlns="http://www.w3.org/2000/svg" xmlns:xlink="http://www.w3.org/1999/xlink" x="0px" y="0px"
	 width="99.242px" height="99.242px" viewBox="0 0 99.242 99.242" enable-background="new 0 0 99.242 99.242" xml:space="preserve">
<g>
	<path d="M54.896,56.023c-0.35,0-0.7,0.099-1.051,0.274c-0.349,0.177-0.673,0.451-0.974,0.775v-4.925h-2.276v15.331h2.276v-0.875
		c0.301,0.35,0.625,0.598,0.974,0.776c0.351,0.172,0.725,0.248,1.179,0.248c0.673,0,1.2-0.225,1.547-0.649
		c0.351-0.426,0.525-1.05,0.525-1.851V58.85c0-0.928-0.198-1.627-0.575-2.102C56.147,56.272,55.597,56.023,54.896,56.023z
		 M54.772,64.826c0,0.375-0.077,0.627-0.202,0.775c-0.125,0.177-0.322,0.252-0.623,0.252c-0.176,0-0.35-0.051-0.525-0.127
		c-0.175-0.074-0.376-0.225-0.55-0.4v-7.052c0.15-0.151,0.324-0.276,0.475-0.352c0.149-0.074,0.324-0.1,0.474-0.1
		c0.301,0,0.551,0.1,0.701,0.301c0.173,0.201,0.25,0.474,0.25,0.852V64.826z"/>
	<path d="M46.618,64.75c-0.198,0.25-0.425,0.45-0.698,0.601c-0.251,0.176-0.454,0.25-0.625,0.25c-0.203,0-0.376-0.048-0.452-0.175
		c-0.102-0.125-0.151-0.326-0.151-0.575v-8.704h-2.251v9.479c0,0.675,0.125,1.175,0.375,1.5c0.276,0.351,0.677,0.525,1.199,0.525
		c0.426,0,0.854-0.124,1.304-0.375c0.449-0.225,0.899-0.577,1.299-1.05v1.25h2.275v-11.33h-2.275V64.75z"/>
	<path d="M61.724,55.872c-1.026,0-1.851,0.324-2.474,0.926c-0.651,0.625-0.976,1.425-0.976,2.401v5.076
		c0,1.101,0.301,1.953,0.873,2.577c0.577,0.625,1.376,0.926,2.404,0.926c1.122,0,1.976-0.277,2.524-0.876
		c0.577-0.576,0.878-1.449,0.878-2.627V63.7h-2.354v0.526c0,0.649-0.074,1.1-0.224,1.275c-0.151,0.201-0.4,0.301-0.775,0.301
		c-0.351,0-0.627-0.1-0.775-0.349c-0.153-0.225-0.203-0.627-0.203-1.227v-2.125h4.33v-2.902c0-1.076-0.301-1.875-0.854-2.451
		C63.552,56.173,62.751,55.872,61.724,55.872z M62.599,60.322h-1.976v-1.149c0-0.45,0.05-0.799,0.227-0.999
		c0.149-0.201,0.4-0.326,0.776-0.326c0.349,0,0.598,0.125,0.75,0.326c0.149,0.2,0.224,0.548,0.224,0.999V60.322z"/>
	<polygon points="33.613,54.371 36.238,54.371 36.238,67.477 38.792,67.477 38.792,54.371 41.442,54.371 41.442,52.146 
		33.613,52.146 	"/>
	<path d="M49.269,34.714c-0.3,0-0.574,0.075-0.75,0.251c-0.198,0.15-0.301,0.375-0.301,0.648v6.804c0,0.325,0.103,0.6,0.275,0.775
		c0.178,0.201,0.452,0.299,0.776,0.299c0.351,0,0.626-0.098,0.824-0.299c0.202-0.201,0.302-0.45,0.302-0.775v-6.804
		c0-0.274-0.1-0.499-0.302-0.648C49.871,34.789,49.594,34.714,49.269,34.714z"/>
	<path d="M99.242,49.62C99.242,22.216,77.027,0,49.624,0C22.219,0,0,22.216,0,49.62c0,27.405,22.219,49.623,49.624,49.623
		C77.027,99.242,99.242,77.024,99.242,49.62z M24.811,63.727v-7.229c0-3.9,3.2-7.103,7.079-7.103h35.464
		c3.876,0,7.079,3.203,7.079,7.103v7.229c0,3.899-3.202,7.078-7.079,7.078H31.889C28.01,70.805,24.811,67.626,24.811,63.727z
		 M58.322,45.118c-0.524,0.25-0.999,0.375-1.5,0.375c-0.573,0-1.027-0.175-1.325-0.551c-0.301-0.375-0.452-0.923-0.452-1.676V32.861
		h2.551v9.556c0,0.301,0.05,0.499,0.177,0.649c0.1,0.125,0.276,0.199,0.5,0.199c0.201,0,0.424-0.098,0.725-0.274
		c0.276-0.175,0.548-0.4,0.775-0.674v-9.456h2.553v12.456h-2.553v-1.375C59.3,44.469,58.823,44.843,58.322,45.118z M52.996,35.79
		v6.427c0,1.076-0.325,1.9-1.001,2.5c-0.648,0.627-1.576,0.926-2.726,0.926c-1.1,0-2.001-0.325-2.677-0.949
		c-0.651-0.627-0.997-1.45-0.997-2.525v-6.454c0-0.978,0.346-1.727,1.023-2.301c0.701-0.575,1.625-0.876,2.778-0.876
		c1.048,0,1.922,0.301,2.599,0.926C52.646,34.063,52.996,34.838,52.996,35.79z M35.766,28.435h2.899l1.851,6.754h0.202l1.773-6.754
		h2.902l-3.327,9.88v7.003h-2.875v-6.679L35.766,28.435z"/>
</g>
</svg>
